<svg aria-hidden="true" style="position: absolute; width: 0; height: 0; overflow: hidden;" version="1.1" xmlns="http://www.w3.org/2000/svg" xmlns:xlink="http://www.w3.org/1999/xlink">
<defs>
<symbol id="icon-menu" viewBox="0 0 32 32">
<path d="M28 17.5h-24c-0.8 0-1.5-0.7-1.5-1.5s0.7-1.5 1.5-1.5h24c0.8 0 1.5 0.7 1.5 1.5s-0.7 1.5-1.5 1.5z"></path>
<path d="M28 9.5h-24c-0.8 0-1.5-0.7-1.5-1.5s0.7-1.5 1.5-1.5h24c0.8 0 1.5 0.7 1.5 1.5s-0.7 1.5-1.5 1.5z"></path>
<path d="M28 25.5h-24c-0.8 0-1.5-0.7-1.5-1.5s0.7-1.5 1.5-1.5h24c0.8 0 1.5 0.7 1.5 1.5s-0.7 1.5-1.5 1.5z"></path>
</symbol>
<symbol id="icon-germo" viewBox="0 0 36 32">
<path d="M10.6 9.4c-1.2-0.6-2.8-0.6-4-0.2-1.4 0.4-2.6 1.2-3.4 2.4s-1.4 2.4-1.4 3.8c0 1.4 0.6 2.8 1.4 4s2.2 2 3.6 2.2c1.4 0.4 2.8 0.2 4.2-0.4 1.2-0.6 2.4-1.4 3-2.8 0.6-1.2 1-2.6 0.8-4.2 0-0.2 0-0.2 0-0.4s0-0.2 0.2-0.4c0 0 0.2-0.2 0.2-0.2 0.2 0 0.2-0.2 0.4-0.2s0.2 0 0.4 0 0.2 0 0.4 0.2c0 0 0.2 0.2 0.2 0.2 0 0.4 0 0.6 0 0.6 0.2 1.8 0 3.6-1 5.2-0.8 1.6-2.2 2.8-4 3.6-1.6 0.8-3.6 1-5.4 0.4-1.8-0.4-3.4-1.4-4.6-2.8-1-1.2-1.6-3-1.6-4.8s0.6-3.6 1.6-5.2c1.2-1.4 2.6-2.6 4.4-3 1.8-0.6 3.6-0.4 5.4 0.2 0.2 0 0.2 0.2 0.4 0.2 0 0 0.2 0.2 0.2 0.2s0 0.2 0 0.4c0 0.2 0 0.2 0 0.4s-0.2 0.2-0.2 0.4c0 0-0.2 0.2-0.2 0.2-0.2 0-0.2 0-0.4 0s-0.4 0-0.6 0z"></path>
<path d="M7.4 31v-7.4c0-0.2 0-0.4 0.2-0.6s0.4-0.2 0.6-0.2c0.2 0 0.4 0 0.6 0.2s0.2 0.4 0.2 0.6v7.4c0 0.2 0 0.4-0.2 0.6 0 0.4-0.2 0.4-0.4 0.4s-0.4 0-0.6-0.2c-0.2-0.2-0.4-0.4-0.4-0.8z"></path>
<path d="M4.6 26.4c0-0.2 0-0.4 0.2-0.6s0.4-0.2 0.6-0.2h5.6c0.2 0 0.4 0 0.6 0.2 0.4 0.2 0.4 0.4 0.4 0.6s0 0.4-0.2 0.6c-0.2 0.2-0.4 0.2-0.6 0.2h-5.6c-0.2 0-0.4 0-0.6-0.2-0.2 0-0.4-0.4-0.4-0.6zM21.2 9.2c-1-0.2-2.2-0.4-3.2 0-1 0-2 0.6-2.8 1.2-0.8 0.8-1.4 1.6-1.8 2.6s-0.6 2-0.4 3.2c0 0.2 0 0.2 0 0.4s0 0.2-0.2 0.4c0 0-0.2 0.2-0.2 0.2s-0.2 0-0.4 0.2c-0.2 0-0.2 0-0.4 0s-0.2 0-0.4-0.2 0-0.4-0.2-0.6c0-0.2 0-0.2-0.2-0.4 0-1.6 0.4-3.6 1.2-5.2 1-1.6 2.4-2.8 4-3.4 1.8-0.6 3.8-0.8 5.4-0.2 1.8 0.4 3.4 1.6 4.4 3s1.6 3.2 1.6 5c0 1.8-0.6 3.6-1.8 5s-2.8 2.4-4.4 3c-1.8 0.4-3.6 0.2-5.4-0.4-0.2 0-0.2-0.2-0.2-0.2s-0.2-0.2-0.2-0.4c0-0.2 0-0.4 0-0.8 0-0.2 0.2-0.4 0.6-0.4 0.2 0 0.4 0 0.8 0 0.8 0.4 1.6 0.6 2.6 0.6s1.8-0.2 2.6-0.6c0.8-0.4 1.6-0.8 2.2-1.6 0.6-0.6 1-1.4 1.4-2.2 0.2-0.8 0.4-1.8 0.4-2.6s-0.4-1.8-0.8-2.6c-0.4-0.8-1-1.4-1.6-2-1-0.4-1.8-0.8-2.6-1z"></path>
<path d="M26.8 9.2c-0.2-0.2-0.2-0.4-0.2-0.8 0-0.2 0.2-0.6 0.2-0.8l7.4-7.4c0 0 0.2-0.2 0.4-0.2s0.2 0 0.4 0 0.2 0 0.4 0 0.2 0.2 0.4 0.2c0 0 0.2 0.2 0.2 0.4s0 0.2 0 0.4 0 0.2 0 0.4-0.2 0.2-0.2 0.4l-7.4 7.4c-0.2 0.2-0.4 0.2-0.8 0.2-0.4 0.2-0.6 0-0.8-0.2z"></path>
<path d="M35 7c-0.2 0-0.2 0-0.4 0s-0.2-0.2-0.4-0.2c0 0-0.2-0.2-0.2-0.4s0-0.2 0-0.4v-4h-4c-0.2 0-0.6 0-0.8-0.2s-0.2-0.4-0.4-0.8c0-0.2 0-0.6 0.2-0.8 0.4 0 0.8-0.2 1-0.2h6v6c0 0.2 0 0.2 0 0.4s-0.2 0.2-0.2 0.4c0 0-0.2 0.2-0.4 0.2s-0.4 0-0.4 0z"></path>
</symbol>
<symbol id="icon-pen" viewBox="0 0 32 32">
<path fill="#f6b83d" style="fill: var(--color1, #f6b83d)" d="M2.667 30.578c-0.356 0-0.711-0.178-0.889-0.356-0.356-0.356-0.533-0.889-0.356-1.244l1.956-7.289c0-0.178 0.178-0.356 0.356-0.533l17.956-18.133c0 0 0 0 0 0 0.533-0.533 1.067-0.889 1.6-1.067 1.244-0.533 2.667-0.533 3.911 0 0.533 0.178 1.244 0.711 1.6 1.067 0.533 0.533 0.889 1.067 1.067 1.6 0.356 0.711 0.533 1.422 0.533 2.133s-0.178 1.244-0.356 1.778c-0.178 0.711-0.711 1.244-1.067 1.6l-17.956 18.133c-0.178 0.178-0.356 0.356-0.533 0.356l-7.289 1.956c-0.356 0-0.356 0-0.533 0zM5.867 22.756l-1.244 4.8 4.8-1.244 17.778-17.778c0.178-0.178 0.356-0.533 0.533-0.711 0.178-0.356 0.178-0.533 0.178-0.889s0-0.711-0.178-0.889c-0.178-0.356-0.356-0.533-0.533-0.711s-0.533-0.356-0.711-0.533c-0.533-0.178-1.244-0.178-1.778 0-0.356 0.178-0.533 0.356-0.711 0.533l-18.133 17.422z"></path>
</symbol>
<symbol id="icon-star" viewBox="0 0 32 32">
<path fill="#ffc531" style="fill: var(--color2, #ffc531)" d="M12.4 9.4l3.6-6.8 3.6 6.8c0.4 0.6 0.8 1 1.6 1.2l7.6 1.4-5.4 5.6c-0.4 0.4-0.6 1.2-0.6 1.8l1 7.6-7-3.4c-0.6-0.4-1.4-0.4-2 0l-7 3.4 1-7.6c0-0.6-0.2-1.4-0.6-1.8l-5-5.8 7.6-1.4c0.8 0 1.2-0.4 1.6-1zM29 11.6v0 0zM7.8 27c0 0 0 0 0 0v0z"></path>
<path fill="#ffc531" style="fill: var(--color2, #ffc531)" d="M25.4 29l-9-4.4c-0.2-0.2-0.6-0.2-0.8 0l-9 4.4 1.4-10c0-0.4 0-0.6-0.2-0.8l-7-7.2 9.8-1.8c0.4 0 0.6-0.2 0.8-0.6l4.6-8.6 4.6 8.8c0.2 0.2 0.4 0.4 0.8 0.6l9.8 1.8-7 7.2c-0.2 0-0.2 0.4-0.2 0.6l1.4 10zM16 22c0.6 0 1 0.2 1.6 0.4l4.8 2.4-0.8-5.4c-0.2-1 0.2-2.2 1-2.8l3.8-4-5.4-1c-1 0-2-0.8-2.4-1.6l-2.6-4.8-2.6 4.8c-0.4 0.8-1.4 1.6-2.4 1.8l-5.4 0.8 3.8 3.8c0.8 0.8 1 1.8 1 2.8l-0.8 5.4 4.8-2.4c0.6 0 1-0.2 1.6-0.2z"></path>
</symbol>
<symbol id="icon-male" viewBox="0 0 19 32">
<path d="M9.6 31.68c-5.12 0-9.28-4.16-9.28-9.28 0-4.64 3.52-8.48 8-9.12v-8.8l-4.32 4.32c-0.48 0.48-1.28 0.48-1.76 0s-0.48-1.28 0-1.76l6.4-6.4c0.16-0.16 0.32-0.16 0.32-0.32 0.32-0.16 0.64-0.16 0.96 0 0.16 0 0.32 0.16 0.32 0.32l6.4 6.4c0.48 0.48 0.48 1.28 0 1.76s-1.28 0.48-1.76 0l-4-4.32v8.8c4.48 0.64 8 4.48 8 9.12 0 5.12-4.16 9.28-9.28 9.28zM9.6 15.68c-3.68 0-6.72 3.040-6.72 6.72s3.040 6.72 6.72 6.72c3.68 0 6.72-3.040 6.72-6.72s-3.040-6.72-6.72-6.72z"></path>
</symbol>
<symbol id="icon-female" viewBox="0 0 19 32">
<path d="M9.6 31.68c-0.64 0-1.28-0.48-1.28-1.28v-3.52h-3.52c-0.64 0-1.28-0.48-1.28-1.28s0.48-1.28 1.28-1.28h3.52v-5.6c-4.48-0.64-8-4.48-8-9.12 0-5.12 4.16-9.28 9.28-9.28s9.28 4.16 9.28 9.28c0 4.64-3.52 8.48-8 9.12v5.6h3.52c0.64 0 1.28 0.48 1.28 1.28s-0.64 1.28-1.28 1.28h-3.52v3.52c0 0.64-0.64 1.28-1.28 1.28zM9.6 2.88c-3.68 0-6.72 3.040-6.72 6.72s3.040 6.72 6.72 6.72c3.68 0 6.72-3.040 6.72-6.72s-3.040-6.72-6.72-6.72z"></path>
</symbol>
<symbol id="icon-calendar" viewBox="0 0 32 32">
<path d="M25.28 30.72h-18.56c-2.24 0-4.16-1.92-4.16-4.16v-18.56c0-2.24 1.92-4.16 4.16-4.16h18.72c2.24 0 4.16 1.92 4.16 4.16v18.72c-0.16 2.24-2.080 4-4.32 4zM6.72 6.72c-0.8 0-1.28 0.64-1.28 1.28v18.72c0 0.64 0.48 1.28 1.28 1.28h18.72c0.64 0 1.28-0.48 1.28-1.28v-18.72c0-0.64-0.48-1.28-1.28-1.28h-18.72z"></path>
<path d="M21.28 9.44c-0.8 0-1.44-0.64-1.44-1.44v-5.28c0-0.8 0.64-1.44 1.44-1.44s1.44 0.64 1.44 1.44v5.28c0 0.8-0.64 1.44-1.44 1.44z"></path>
<path d="M10.72 9.44c-0.8 0-1.44-0.64-1.44-1.44v-5.28c0-0.8 0.64-1.44 1.44-1.44s1.44 0.64 1.44 1.44v5.28c0 0.8-0.64 1.44-1.44 1.44z"></path>
<path d="M28 14.72h-24c-0.8 0-1.44-0.64-1.44-1.44s0.64-1.44 1.44-1.44h24c0.8 0 1.44 0.64 1.44 1.44s-0.64 1.44-1.44 1.44z"></path>
</symbol>
<symbol id="icon-heart" viewBox="0 0 32 32">
<path fill="#f6b83d" style="fill: var(--color1, #f6b83d)" d="M16 29.689c-0.356 0-0.711-0.178-0.889-0.356l-11.911-11.911c-1.6-1.6-2.489-3.733-2.489-6.044s0.889-4.444 2.489-6.044 3.911-2.667 6.222-2.667 4.444 0.889 6.044 2.489l0.533 0.533 0.533-0.533c0.889-0.889 1.778-1.422 2.844-1.956 2.133-0.889 4.444-0.889 6.578 0 1.067 0.356 1.956 1.067 2.844 1.956v0c0.889 0.889 1.422 1.778 1.956 2.844 0.356 1.067 0.711 2.133 0.711 3.378s-0.178 2.311-0.711 3.378c-0.356 1.067-1.067 1.956-1.956 2.844l-11.733 11.733c-0.356 0.178-0.711 0.356-1.067 0.356zM9.422 5.333c-1.6 0-3.2 0.711-4.267 1.778s-1.778 2.667-1.778 4.267 0.711 3.022 1.778 4.267l10.844 10.844 10.844-10.844c0.533-0.533 1.067-1.244 1.244-1.956 0.356-0.711 0.533-1.422 0.533-2.311s-0.178-1.6-0.533-2.311c-0.356-0.711-0.711-1.422-1.244-1.956s-1.244-1.067-1.956-1.244c-1.422-0.533-3.2-0.533-4.622 0-0.711 0.178-1.422 0.711-1.956 1.244l-1.422 1.422c-0.533 0.533-1.422 0.533-1.956 0l-1.244-1.422c-1.244-1.067-2.667-1.778-4.267-1.778z"></path>
</symbol>
<symbol id="icon-arrow-right" viewBox="0 0 32 32">
<path d="M17.866 16.947c0.125-0.124 0.224-0.271 0.292-0.434s0.103-0.337 0.103-0.513c0-0.176-0.035-0.35-0.103-0.513s-0.167-0.31-0.292-0.434l-6.12-6.107c-0.125-0.124-0.224-0.271-0.292-0.434s-0.103-0.337-0.103-0.513c0-0.176 0.035-0.35 0.103-0.513s0.167-0.31 0.292-0.434c0.25-0.248 0.588-0.388 0.94-0.388s0.69 0.139 0.94 0.388l6.12 6.12c0.749 0.75 1.17 1.767 1.17 2.827s-0.421 2.077-1.17 2.827l-6.12 6.12c-0.248 0.246-0.584 0.385-0.933 0.387-0.175 0.001-0.349-0.033-0.512-0.099s-0.31-0.164-0.435-0.288c-0.125-0.124-0.224-0.271-0.292-0.434s-0.103-0.337-0.103-0.513c0-0.176 0.035-0.35 0.103-0.513s0.167-0.31 0.292-0.434l6.12-6.107z"></path>
</symbol>
<symbol id="icon-arrow-left" viewBox="0 0 32 32">
<path d="M14.134 16.947c-0.125-0.124-0.224-0.271-0.292-0.434s-0.103-0.337-0.103-0.513 0.035-0.35 0.103-0.513c0.068-0.162 0.167-0.31 0.292-0.434l6.12-6.107c0.125-0.124 0.224-0.271 0.292-0.434s0.103-0.337 0.103-0.513-0.035-0.35-0.103-0.513c-0.068-0.162-0.167-0.31-0.292-0.434-0.25-0.248-0.588-0.388-0.94-0.388s-0.69 0.139-0.94 0.388l-6.12 6.12c-0.749 0.75-1.17 1.767-1.17 2.827s0.421 2.077 1.17 2.827l6.12 6.12c0.248 0.246 0.584 0.385 0.933 0.387 0.175 0.001 0.349-0.033 0.512-0.099s0.31-0.164 0.435-0.288c0.125-0.124 0.224-0.271 0.292-0.434s0.103-0.337 0.103-0.513-0.035-0.35-0.103-0.513c-0.068-0.162-0.167-0.31-0.292-0.434l-6.12-6.107z"></path>
</symbol>
<symbol id="icon-user" viewBox="0 0 32 32">
<path fill="#f6b83d" style="fill: var(--color1, #f6b83d)" d="M16 20c-4.267 0-8 2-10.4 5.2-0.533 0.667-0.8 1.067-0.8 1.467s0.267 0.8 0.533 1.067c0.4 0.267 0.933 0.267 1.867 0.267h17.467c1.067 0 1.467 0 1.867-0.267 0.267-0.267 0.533-0.667 0.533-1.067s-0.267-0.8-0.8-1.467c-2.267-3.2-6-5.2-10.267-5.2z"></path>
<path fill="#f6b83d" style="fill: var(--color1, #f6b83d)" d="M24.8 29.333h-17.6c-1.2 0-2 0-2.667-0.533-0.533-0.533-1.067-1.333-1.067-2 0-0.933 0.4-1.6 1.067-2.267 2.8-3.733 6.933-5.867 11.467-5.867s8.667 2.133 11.467 5.733c0.533 0.8 1.067 1.333 1.067 2.267 0 0.8-0.4 1.6-1.067 2-0.8 0.667-1.467 0.667-2.667 0.667zM6.267 26.667c0.267 0 0.667 0 1.067 0h17.467c0.4 0 0.8 0 0.933 0 0-0.133-0.267-0.4-0.4-0.667-2.267-2.933-5.6-4.667-9.333-4.667s-7.067 1.733-9.333 4.667c-0.133 0.267-0.4 0.533-0.4 0.667z"></path>
<path fill="#f6b83d" style="fill: var(--color1, #f6b83d)" d="M16 16c3.333 0 6-2.667 6-6s-2.667-6-6-6c-3.333 0-6 2.667-6 6s2.667 6 6 6z"></path>
<path fill="#f6b83d" style="fill: var(--color1, #f6b83d)" d="M16 17.333c-4 0-7.333-3.333-7.333-7.333s3.333-7.333 7.333-7.333c4 0 7.333 3.333 7.333 7.333s-3.333 7.333-7.333 7.333zM16 5.333c-2.533 0-4.667 2.133-4.667 4.667s2.133 4.667 4.667 4.667 4.667-2.133 4.667-4.667-2.133-4.667-4.667-4.667z"></path>
</symbol>
<symbol id="icon-eye" viewBox="0 0 32 32">
<path fill="#f6b83d" style="fill: var(--color1, #f6b83d)" d="M16 28.073c-10.182 0-15.709-11.055-16-11.491-0.145-0.436-0.145-0.873 0-1.309 0.291-0.436 5.818-11.491 16-11.491s15.709 11.055 16 11.491c0.145 0.436 0.145 0.873 0 1.309-0.291 0.582-5.818 11.491-16 11.491zM3.055 16c1.309 2.182 5.964 9.164 12.945 9.164s11.782-6.982 12.945-9.164c-1.309-2.182-5.964-9.164-12.945-9.164-7.127 0-11.782 6.982-12.945 9.164z"></path>
<path fill="#f6b83d" style="fill: var(--color1, #f6b83d)" d="M16 21.527c-3.055 0-5.527-2.473-5.527-5.527s2.473-5.527 5.527-5.527c3.055 0 5.527 2.473 5.527 5.527s-2.473 5.527-5.527 5.527zM16 13.382c-1.455 0-2.618 1.164-2.618 2.618s1.164 2.618 2.618 2.618 2.618-1.164 2.618-2.618-1.164-2.618-2.618-2.618z"></path>
</symbol>
<symbol id="icon-eye-off" viewBox="0 0 32 32">
<path fill="#f6b83d" style="fill: var(--color1, #f6b83d)" d="M16 28.073c-10.182 0-15.709-11.055-16-11.491-0.145-0.436-0.145-0.873 0-1.309 1.745-3.345 4.218-6.109 7.127-8.436 0.727-0.436 1.6-0.291 2.182 0.291 0.436 0.727 0.291 1.6-0.291 2.182-2.473 1.891-4.364 4.073-5.964 6.836 1.309 2.182 5.964 9.164 12.945 9.164 2.618 0 4.945-0.873 6.982-2.473 0.582-0.436 1.6-0.291 2.036 0.291s0.291 1.6-0.291 2.036c-2.473 1.891-5.527 2.909-8.727 2.909zM27.782 21.673c-0.291 0-0.727-0.145-0.873-0.291-0.582-0.582-0.727-1.455-0.145-2.036 0.873-1.018 1.6-2.182 2.327-3.345-1.309-2.182-5.964-9.164-12.945-9.164-0.873 0-1.6 0.145-2.473 0.291s-1.745-0.291-1.891-1.164c-0.145-0.727 0.291-1.6 1.018-1.745 1.018-0.291 2.036-0.291 3.2-0.291 10.182 0 15.709 11.055 16 11.491 0.145 0.436 0.145 0.873 0 1.309-0.873 1.6-1.891 3.055-3.055 4.509-0.291 0.291-0.727 0.436-1.164 0.436zM15.855 21.527c-0.727 0-1.455-0.145-2.036-0.436-0.727-0.291-1.309-0.727-1.745-1.164-0.582-0.582-0.873-1.164-1.164-1.745-0.291-0.727-0.436-1.455-0.436-2.182s0.145-1.455 0.436-2.182c0.291-0.582 0.727-1.164 1.309-1.745s1.455-0.582 2.036 0.145c0.582 0.582 0.582 1.455-0.145 2.036-0.291 0.291-0.436 0.582-0.582 0.873s-0.145 0.582-0.291 1.018c0 0.291 0 0.727 0.145 1.018s0.291 0.582 0.582 0.873c0.291 0.291 0.582 0.436 0.873 0.582s0.727 0.145 1.018 0.145c0.291 0 0.727-0.145 1.018-0.291s0.582-0.291 0.873-0.582c0.582-0.582 1.455-0.582 2.036-0.145 0.582 0.582 0.582 1.455 0.145 2.036s-1.164 1.018-1.745 1.309c-0.727 0.291-1.455 0.436-2.327 0.436 0.145 0 0.145 0 0 0z"></path>
<path fill="#f6b83d" style="fill: var(--color1, #f6b83d)" d="M30.691 32.145c-0.436 0-0.727-0.145-1.018-0.436l-29.382-29.382c-0.582-0.582-0.582-1.455 0-2.036s1.455-0.582 2.036 0l29.382 29.382c0.582 0.582 0.582 1.455 0 2.036-0.291 0.291-0.727 0.436-1.018 0.436z"></path>
</symbol>
<symbol id="icon-check" viewBox="0 0 32 32">
<path fill="#08aa83" style="fill: var(--color3, #08aa83)" d="M12.073 25.018c-0.291 0-0.582-0.145-0.727-0.291l-6.691-6.691c-0.436-0.436-0.436-1.164 0-1.6s1.164-0.436 1.6 0l5.964 5.964 13.964-13.964c0.436-0.436 1.164-0.436 1.6 0s0.436 1.164 0 1.6l-14.982 14.691c-0.291 0.291-0.582 0.291-0.727 0.291z"></path>
</symbol>
<symbol id="icon-trash" viewBox="0 0 32 32">
<path fill="#f6b83d" style="fill: var(--color1, #f6b83d)" d="M28.089 9.244h-24.178c-0.711 0-1.422-0.533-1.422-1.422s0.533-1.422 1.422-1.422h24c0.711 0 1.422 0.533 1.422 1.422s-0.533 1.422-1.244 1.422z"></path>
<path fill="#f6b83d" style="fill: var(--color1, #f6b83d)" d="M22.756 30.578h-13.511c-1.067 0-2.133-0.356-2.844-1.244-0.711-0.533-1.067-1.6-1.067-2.667v-18.667c0-0.711 0.533-1.422 1.422-1.422s1.422 0.533 1.422 1.422v18.667c0 0.356 0.178 0.711 0.356 0.889s0.533 0.356 0.889 0.356h13.333c0.356 0 0.711-0.178 0.889-0.356s0.356-0.533 0.356-0.889v-18.667c0-0.711 0.533-1.422 1.422-1.422s1.244 0.711 1.244 1.422v18.667c0 1.067-0.356 2.133-1.244 2.844s-1.778 1.067-2.667 1.067zM21.333 9.244c-0.711 0-1.422-0.533-1.422-1.422v-2.489c0-0.356-0.178-0.711-0.356-0.889s-0.533-0.356-0.889-0.356h-5.333c-0.356-0.178-0.711 0-0.889 0.356s-0.356 0.533-0.356 0.889v2.667c0 0.711-0.533 1.422-1.422 1.422s-1.422-0.711-1.422-1.422v-2.667c0-1.067 0.356-2.133 1.244-2.844 0.711-0.711 1.778-1.244 2.844-1.244h5.333c1.067 0 2.133 0.356 2.844 1.244 0.711 0.711 1.244 1.778 1.244 2.844v2.667c0 0.711-0.711 1.244-1.422 1.244z"></path>
<path fill="#f6b83d" style="fill: var(--color1, #f6b83d)" d="M13.333 24c-0.711 0-1.422-0.533-1.422-1.422v-8c0-0.711 0.533-1.422 1.422-1.422s1.422 0.533 1.422 1.422v8c-0.178 0.889-0.711 1.422-1.422 1.422z"></path>
<path fill="#f6b83d" style="fill: var(--color1, #f6b83d)" d="M18.667 24c-0.711 0-1.422-0.533-1.422-1.422v-8c0-0.711 0.533-1.422 1.422-1.422s1.422 0.533 1.422 1.422v8c-0.178 0.889-0.711 1.422-1.422 1.422z"></path>
</symbol>
<symbol id="icon-arrow-down" viewBox="0 0 32 32">
<path d="M16 21.689c-0.533 0-0.889-0.178-1.244-0.533l-8-7.822c-0.711-0.711-0.711-1.778 0-2.489s1.778-0.711 2.489 0l6.756 6.578 6.756-6.756c0.711-0.711 1.778-0.711 2.489 0s0.711 1.778 0 2.489l-8 8.178c-0.356 0.356-0.711 0.356-1.244 0.356z"></path>
</symbol>
<symbol id="icon-search" viewBox="0 0 32 32">
<path d="M14.578 27.022c-6.933 0-12.444-5.511-12.444-12.444s5.511-12.444 12.444-12.444c6.933 0 12.444 5.511 12.444 12.444s-5.511 12.444-12.444 12.444zM14.578 5.689c-4.978 0-8.889 3.911-8.889 8.889s3.911 8.889 8.889 8.889 8.889-3.911 8.889-8.889-3.911-8.889-8.889-8.889z"></path>
<path d="M28.089 29.867c-0.533 0-0.889-0.178-1.244-0.533l-5.867-5.867c-0.711-0.711-0.711-1.778 0-2.489s1.778-0.711 2.489 0l5.867 5.867c0.711 0.711 0.711 1.778 0 2.489-0.356 0.356-0.889 0.533-1.244 0.533z"></path>
</symbol>
<symbol id="icon-cross" viewBox="0 0 32 32">
<path d="M25.309 26.764c-0.436 0-0.727-0.145-1.018-0.436l-8.291-8.291-8.291 8.291c-0.582 0.582-1.455 0.582-2.036 0s-0.582-1.455 0-2.036l8.291-8.291-8.291-8.291c-0.582-0.582-0.582-1.455 0-2.036s1.455-0.582 2.036 0l8.291 8.291 8.291-8.291c0.582-0.582 1.455-0.582 2.036 0s0.582 1.455 0 2.036l-8.291 8.291 8.291 8.291c0.582 0.582 0.582 1.455 0 2.036-0.291 0.291-0.582 0.436-1.018 0.436z"></path>
</symbol>
</defs>
</svg>
